<svg id="svg" version="1.1" xmlns="http://www.w3.org/2000/svg" xmlns:xlink="http://www.w3.org/1999/xlink" width="400" height="400" viewBox="0, 0, 400,400"><g id="svgg"><path id="path0" d="M194.767 72.948 C 194.675 73.029,192.980 73.199,191.000 73.326 C 185.490 73.680,174.074 75.936,174.679 76.552 C 174.856 76.731,174.640 76.825,174.200 76.759 C 172.537 76.512,164.527 79.849,161.440 82.075 C 160.582 82.694,159.644 83.200,159.356 83.200 C 159.067 83.200,158.454 83.605,157.993 84.100 C 157.532 84.595,157.030 85.000,156.877 85.001 C 156.233 85.002,154.133 86.809,154.133 87.362 C 154.133 87.694,154.271 87.880,154.439 87.776 C 154.608 87.672,155.028 87.990,155.373 88.482 C 155.718 88.975,156.006 89.203,156.014 88.989 C 156.022 88.775,156.492 89.140,157.058 89.800 C 157.625 90.460,157.943 90.730,157.766 90.400 C 157.344 89.615,159.882 91.785,163.445 95.256 C 168.763 100.435,168.730 101.718,163.241 103.144 C 161.393 103.623,158.783 104.531,157.441 105.161 C 156.098 105.791,154.325 106.522,153.500 106.784 C 152.675 107.047,152.000 107.406,152.000 107.582 C 152.000 107.872,150.095 108.824,149.317 108.923 C 148.683 109.004,142.591 112.929,142.280 113.457 C 142.104 113.756,141.770 114.000,141.538 114.000 C 141.305 114.000,140.754 114.459,140.312 115.021 C 139.870 115.583,139.405 115.938,139.277 115.811 C 138.970 115.503,134.785 119.652,135.020 120.032 C 135.120 120.194,134.625 120.813,133.920 121.406 C 132.442 122.650,128.755 128.004,129.050 128.480 C 129.158 128.656,129.046 128.800,128.800 128.800 C 128.554 128.800,128.455 128.965,128.579 129.166 C 128.703 129.367,128.660 129.592,128.483 129.666 C 127.468 130.089,124.969 139.513,124.388 145.111 C 123.356 155.057,126.375 174.430,129.529 178.106 C 129.862 178.494,130.162 179.124,130.196 179.506 C 130.272 180.369,131.900 183.558,132.646 184.303 C 132.951 184.608,133.200 185.121,133.200 185.443 C 133.200 186.150,134.383 188.076,135.090 188.520 C 135.371 188.696,135.600 189.073,135.600 189.358 C 135.600 189.643,135.960 190.202,136.400 190.600 C 136.840 190.998,137.200 191.503,137.200 191.721 C 137.200 192.319,139.858 195.574,141.949 197.538 C 142.967 198.494,143.547 199.141,143.238 198.976 C 142.867 198.778,142.773 198.833,142.962 199.138 C 143.119 199.392,143.462 199.601,143.724 199.603 C 143.986 199.604,144.648 200.279,145.196 201.103 C 145.744 201.926,146.422 202.746,146.703 202.924 C 148.651 204.158,151.058 212.524,152.020 221.400 C 152.813 228.713,154.707 235.938,156.294 237.700 C 156.640 238.085,156.814 238.400,156.680 238.400 C 156.447 238.400,157.581 239.764,158.964 241.145 C 161.050 243.229,161.597 243.649,161.945 243.434 C 162.158 243.302,162.392 243.374,162.466 243.592 C 162.540 243.810,164.130 244.376,166.000 244.849 C 172.002 246.366,180.606 245.297,185.750 242.394 C 186.914 241.737,187.986 241.319,188.133 241.466 C 188.280 241.613,188.400 241.523,188.400 241.267 C 188.400 241.010,188.636 240.800,188.925 240.800 C 189.213 240.800,189.885 240.395,190.417 239.900 C 190.949 239.405,191.536 239.049,191.722 239.110 C 191.908 239.170,191.966 239.069,191.852 238.885 C 191.739 238.701,192.330 237.801,193.167 236.886 C 194.003 235.970,194.593 235.127,194.477 235.011 C 194.361 234.895,194.507 234.800,194.800 234.800 C 195.093 234.800,195.215 234.682,195.070 234.537 C 194.925 234.392,195.027 234.008,195.297 233.683 C 196.086 232.732,195.920 228.617,195.054 227.660 C 194.640 227.202,194.452 226.639,194.623 226.363 C 194.816 226.051,194.756 225.980,194.457 226.165 C 194.156 226.351,193.907 226.034,193.753 225.267 C 193.532 224.160,190.407 220.581,190.394 221.419 C 190.391 221.628,190.225 221.543,190.026 221.228 C 189.827 220.914,189.425 220.603,189.132 220.538 C 187.781 220.239,176.061 216.060,174.946 215.479 C 173.013 214.474,169.831 211.405,168.973 209.718 C 168.548 208.883,168.101 208.110,167.980 208.000 C 166.487 206.644,166.509 198.664,168.027 190.927 C 168.702 187.489,169.323 184.209,169.408 183.638 C 169.492 183.067,169.675 182.150,169.813 181.600 C 171.117 176.423,171.705 166.890,170.789 165.787 C 170.579 165.534,170.540 165.179,170.703 164.999 C 170.867 164.819,170.795 164.789,170.544 164.932 C 170.293 165.076,169.794 164.745,169.435 164.197 C 169.055 163.617,168.963 163.200,169.214 163.200 C 169.452 163.200,169.534 163.017,169.396 162.793 C 169.258 162.570,169.004 162.474,168.833 162.580 C 168.661 162.686,168.114 162.393,167.617 161.930 C 166.754 161.126,166.587 161.112,163.924 161.614 C 161.621 162.049,161.078 162.049,160.810 161.616 C 160.616 161.303,160.064 161.171,159.443 161.290 C 158.869 161.399,158.400 161.322,158.400 161.118 C 158.400 160.913,158.040 160.860,157.600 161.000 C 157.160 161.140,156.800 161.082,156.800 160.872 C 156.800 160.662,156.305 160.400,155.700 160.288 C 154.316 160.033,150.472 158.401,149.028 157.455 C 146.975 156.110,146.094 152.095,147.500 150.489 C 148.316 149.558,150.800 148.621,150.800 149.244 C 150.800 149.466,150.980 149.536,151.200 149.400 C 151.420 149.264,151.600 149.354,151.600 149.600 C 151.600 149.846,151.762 149.947,151.959 149.825 C 152.157 149.703,152.896 150.142,153.602 150.802 C 154.307 151.461,154.944 152.000,155.016 152.000 C 155.089 152.000,155.565 152.158,156.074 152.352 C 156.583 152.546,157.107 152.681,157.239 152.652 C 157.370 152.623,157.775 152.847,158.139 153.149 C 158.502 153.451,158.800 153.580,158.800 153.435 C 158.800 153.290,159.167 153.368,159.615 153.608 C 160.346 153.999,166.501 154.189,168.000 153.867 C 170.162 153.402,172.929 152.313,174.665 151.245 C 175.778 150.560,176.973 150.000,177.321 150.000 C 177.668 150.000,178.054 149.836,178.178 149.636 C 178.302 149.435,178.717 149.331,179.102 149.405 C 179.486 149.479,179.930 149.553,180.090 149.569 C 180.662 149.630,181.600 151.988,181.600 153.366 C 181.600 154.977,179.961 157.131,178.022 158.071 C 176.884 158.622,176.858 158.691,177.404 159.744 C 177.718 160.347,177.961 161.417,177.944 162.121 C 177.927 162.824,178.110 164.239,178.351 165.264 C 179.033 168.176,178.988 176.693,178.279 179.000 C 178.144 179.440,177.947 180.520,177.842 181.400 C 177.738 182.280,177.199 184.710,176.645 186.800 C 173.767 197.660,173.689 205.200,176.454 205.200 C 177.215 205.200,177.473 205.101,179.946 203.860 C 182.100 202.779,187.493 202.584,192.600 203.403 C 198.011 204.271,202.792 204.327,207.000 203.573 C 213.151 202.471,220.720 203.376,222.413 205.415 C 223.349 206.543,224.387 206.096,225.193 204.216 C 226.751 200.581,226.646 198.635,224.512 191.600 C 223.945 189.730,223.443 187.930,223.397 187.600 C 223.351 187.270,223.089 186.460,222.814 185.800 C 222.540 185.140,222.310 183.925,222.303 183.100 C 222.296 182.275,222.180 181.600,222.045 181.600 C 221.218 181.600,221.224 164.433,222.053 163.169 C 222.860 161.936,223.400 159.600,222.878 159.600 C 222.176 159.600,218.004 155.917,218.252 155.517 C 218.385 155.300,218.274 154.713,218.005 154.210 C 217.292 152.877,218.455 150.539,220.001 150.200 C 221.338 149.906,224.000 150.335,224.000 150.845 C 224.000 151.040,224.261 151.200,224.580 151.200 C 224.899 151.200,225.304 151.450,225.480 151.755 C 225.873 152.437,228.614 153.386,231.920 153.986 C 234.224 154.403,234.940 154.380,238.200 153.779 C 240.227 153.406,240.368 153.365,240.655 153.078 C 240.808 152.925,241.318 152.800,241.789 152.800 C 242.260 152.800,243.246 152.356,243.982 151.813 C 244.718 151.271,245.500 150.938,245.722 151.075 C 245.949 151.216,246.000 151.123,245.838 150.862 C 245.681 150.608,245.743 150.378,245.976 150.350 C 246.641 150.272,246.902 150.199,248.480 149.658 C 250.954 148.810,253.138 150.723,252.639 153.299 C 252.500 154.015,252.360 154.832,252.327 155.115 C 252.262 155.666,248.751 158.400,248.108 158.400 C 247.896 158.400,247.307 158.760,246.800 159.200 C 246.010 159.885,244.730 160.238,244.261 159.900 C 244.185 159.845,243.858 160.019,243.535 160.288 C 242.844 160.861,236.294 161.674,234.700 161.384 C 234.095 161.274,233.600 161.324,233.600 161.495 C 233.600 161.665,233.067 162.040,232.417 162.329 C 229.968 163.413,228.091 169.815,228.790 174.699 C 229.203 177.585,230.034 182.008,230.312 182.800 C 230.428 183.130,230.558 183.580,230.600 183.800 C 230.643 184.020,230.721 184.290,230.772 184.400 C 230.824 184.510,230.911 184.960,230.965 185.400 C 231.240 187.650,231.679 189.200,232.042 189.200 C 232.265 189.200,232.348 189.360,232.227 189.556 C 232.106 189.752,232.363 191.597,232.797 193.656 C 235.260 205.324,230.714 214.182,220.716 217.197 C 215.318 218.825,211.855 220.069,211.571 220.484 C 211.444 220.668,210.904 220.900,210.371 221.000 C 209.837 221.100,208.975 221.681,208.456 222.291 C 207.937 222.901,207.636 223.130,207.787 222.800 C 207.937 222.470,207.687 222.625,207.230 223.144 C 206.774 223.664,206.400 224.319,206.400 224.602 C 206.400 224.884,206.128 225.219,205.796 225.346 C 205.464 225.473,205.223 225.718,205.261 225.889 C 205.298 226.060,205.127 226.688,204.880 227.284 C 203.876 229.711,203.886 232.089,204.910 234.085 C 205.441 235.122,205.679 235.867,205.438 235.739 C 205.197 235.612,205.732 236.203,206.627 237.054 C 207.521 237.904,207.881 238.330,207.427 238.000 C 206.607 237.405,206.606 237.407,207.353 238.291 C 207.768 238.780,208.248 239.094,208.421 238.987 C 208.594 238.880,209.086 239.238,209.515 239.783 C 209.943 240.327,210.408 240.659,210.547 240.520 C 210.686 240.381,210.800 240.453,210.800 240.680 C 210.800 241.810,219.651 244.784,225.366 245.573 C 229.667 246.167,235.278 245.465,236.831 244.139 C 237.179 243.843,237.647 243.600,237.872 243.600 C 238.097 243.600,239.235 242.565,240.401 241.300 C 243.989 237.409,245.677 232.766,247.587 221.540 C 248.930 213.649,249.937 210.042,251.746 206.645 C 252.436 205.350,253.316 203.685,253.703 202.945 C 254.090 202.205,254.580 201.600,254.793 201.600 C 255.005 201.600,255.449 201.079,255.778 200.442 C 256.108 199.805,257.102 198.573,257.989 197.704 C 258.875 196.836,259.600 195.960,259.600 195.758 C 259.600 195.556,260.129 194.954,260.777 194.419 C 261.424 193.885,261.871 193.314,261.770 193.151 C 261.669 192.988,261.905 192.615,262.293 192.321 C 263.060 191.743,263.634 190.919,264.677 188.900 C 265.046 188.185,265.505 187.600,265.698 187.600 C 265.890 187.600,265.953 187.448,265.839 187.263 C 265.724 187.077,266.254 185.959,267.015 184.777 C 267.777 183.594,268.704 181.811,269.076 180.814 C 269.448 179.816,269.976 178.640,270.248 178.200 C 276.434 168.199,277.733 142.985,272.637 131.844 C 272.067 130.597,271.600 129.426,271.600 129.242 C 271.600 129.058,271.227 128.434,270.771 127.854 C 270.315 127.274,270.079 126.800,270.247 126.800 C 270.415 126.800,270.204 126.536,269.776 126.213 C 269.349 125.890,269.169 125.620,269.376 125.613 C 269.584 125.606,269.404 125.336,268.976 125.013 C 268.549 124.690,268.342 124.420,268.516 124.413 C 268.689 124.406,268.649 124.175,268.426 123.900 C 265.277 120.017,263.952 118.467,263.210 117.800 C 262.721 117.360,261.679 116.370,260.893 115.600 C 260.108 114.830,259.313 114.200,259.127 114.200 C 258.942 114.200,258.329 113.660,257.766 113.000 C 257.203 112.340,256.859 112.070,257.001 112.400 C 257.143 112.730,256.968 112.640,256.612 112.200 C 256.257 111.760,255.787 111.400,255.568 111.400 C 255.350 111.400,255.000 111.130,254.792 110.800 C 254.583 110.470,254.404 110.380,254.393 110.600 C 254.383 110.820,254.110 110.651,253.787 110.224 C 253.464 109.796,253.200 109.584,253.200 109.751 C 253.200 109.918,252.705 109.711,252.100 109.292 C 249.440 107.448,240.909 103.381,237.200 102.189 C 234.148 101.208,233.568 100.039,235.300 98.357 C 235.795 97.876,235.930 97.623,235.600 97.796 C 235.270 97.968,236.345 96.735,237.990 95.055 C 240.946 92.035,241.774 91.339,240.793 92.700 C 240.516 93.085,240.960 92.634,241.779 91.698 C 242.599 90.762,243.462 90.115,243.697 90.260 C 243.934 90.406,244.008 90.337,243.864 90.104 C 243.611 89.694,244.673 89.000,245.330 89.146 C 245.511 89.187,245.551 89.044,245.419 88.830 C 245.194 88.466,246.092 87.771,247.000 87.606 C 247.747 87.470,247.628 87.309,246.413 86.805 C 245.746 86.529,245.200 86.145,245.200 85.951 C 245.200 85.758,244.949 85.600,244.643 85.600 C 244.336 85.600,243.972 85.304,243.833 84.943 C 243.695 84.581,243.467 84.400,243.327 84.539 C 243.188 84.679,242.813 84.577,242.494 84.312 C 241.246 83.277,235.791 80.391,234.674 80.176 C 234.226 80.089,233.756 79.857,233.629 79.660 C 233.157 78.922,221.943 75.594,216.573 74.598 C 209.658 73.315,195.556 72.248,194.767 72.948 M131.036 88.047 C 130.175 88.249,128.870 88.786,128.136 89.240 C 127.401 89.694,126.800 89.925,126.800 89.753 C 126.800 89.582,125.945 90.321,124.900 91.396 C 123.855 92.471,123.000 93.504,123.000 93.690 C 123.000 93.877,122.813 94.158,122.584 94.315 C 119.949 96.123,118.149 110.180,120.372 111.588 C 120.556 111.704,120.995 112.928,121.347 114.308 C 122.140 117.413,123.434 119.306,124.527 118.960 C 125.101 118.777,125.221 118.854,124.991 119.257 C 124.737 119.704,124.781 119.708,125.241 119.280 C 125.549 118.994,125.800 118.614,125.800 118.434 C 125.800 118.255,128.050 115.930,130.800 113.267 C 133.550 110.604,136.205 108.018,136.700 107.521 C 137.195 107.024,137.600 106.768,137.600 106.953 C 137.600 107.137,137.954 106.864,138.387 106.344 C 138.819 105.825,139.179 105.556,139.187 105.747 C 139.194 105.939,139.818 105.624,140.573 105.047 C 141.329 104.471,142.064 104.000,142.208 104.000 C 142.352 104.000,143.249 103.440,144.202 102.756 C 145.235 102.014,146.134 101.635,146.429 101.818 C 146.770 102.029,146.822 101.959,146.596 101.594 C 146.356 101.206,146.453 101.135,146.955 101.327 C 147.363 101.484,147.542 101.430,147.397 101.195 C 147.146 100.790,147.203 100.763,148.638 100.607 C 149.316 100.533,152.000 98.899,152.000 98.561 C 152.000 98.247,146.167 92.809,145.810 92.790 C 145.705 92.784,145.142 92.337,144.559 91.797 C 143.976 91.257,143.342 90.912,143.150 91.031 C 142.957 91.150,142.800 91.057,142.800 90.824 C 142.800 90.591,142.665 90.429,142.500 90.463 C 142.335 90.498,141.197 90.050,139.971 89.467 C 137.980 88.519,134.238 87.533,133.045 87.640 C 132.800 87.662,131.896 87.845,131.036 88.047 M263.400 87.849 C 260.800 88.507,258.608 89.392,257.952 90.048 C 257.538 90.462,256.862 90.800,256.449 90.800 C 256.036 90.800,255.474 91.070,255.200 91.400 C 254.926 91.730,254.497 92.000,254.247 92.000 C 253.997 92.000,253.563 92.367,253.283 92.816 C 253.003 93.264,252.611 93.530,252.412 93.407 C 252.212 93.284,251.903 93.412,251.725 93.692 C 251.546 93.971,250.530 94.899,249.468 95.753 C 247.432 97.390,247.432 98.182,249.467 98.574 C 249.920 98.662,251.419 99.333,252.800 100.066 C 254.180 100.800,255.832 101.678,256.471 102.018 C 257.109 102.357,257.489 102.791,257.316 102.981 C 257.142 103.172,257.298 103.221,257.662 103.091 C 258.057 102.950,258.623 103.185,259.062 103.673 C 259.468 104.123,260.216 104.651,260.724 104.845 C 261.232 105.039,261.537 105.379,261.400 105.599 C 261.264 105.820,261.418 106.000,261.743 106.000 C 262.408 106.000,273.814 117.217,273.672 117.730 C 273.621 117.911,273.728 117.968,273.909 117.856 C 274.090 117.744,274.495 117.812,274.810 118.006 C 275.436 118.393,276.800 117.430,276.800 116.602 C 276.800 116.341,277.324 115.064,277.965 113.764 C 281.291 107.012,281.078 97.026,277.535 93.589 C 277.021 93.090,276.853 92.827,277.162 93.003 C 277.541 93.220,277.630 93.172,277.434 92.855 C 277.275 92.598,276.997 92.478,276.817 92.589 C 276.637 92.701,275.864 92.079,275.100 91.207 C 274.336 90.336,273.596 89.737,273.455 89.878 C 273.315 90.018,273.200 89.923,273.200 89.667 C 273.200 89.410,273.065 89.237,272.900 89.282 C 272.735 89.327,271.970 89.028,271.200 88.618 C 269.812 87.878,265.115 87.414,263.400 87.849 M139.200 116.115 C 139.200 116.178,138.255 117.123,137.100 118.215 L 135.000 120.200 136.985 118.100 C 138.829 116.149,139.200 115.817,139.200 116.115 M281.200 130.600 C 281.200 130.930,281.391 131.200,281.624 131.200 C 281.857 131.200,281.936 131.380,281.800 131.600 C 281.664 131.820,281.690 132.222,281.857 132.493 C 282.025 132.764,282.190 133.259,282.224 133.593 C 282.258 133.927,282.499 135.280,282.759 136.600 C 283.769 141.715,284.528 156.005,283.827 156.706 C 283.702 156.831,283.600 157.419,283.600 158.012 C 283.600 159.189,281.984 167.402,281.022 171.116 C 280.690 172.395,280.338 173.882,280.239 174.421 C 280.140 174.959,280.024 175.445,279.980 175.500 C 279.936 175.555,279.855 175.780,279.800 176.000 C 279.745 176.220,279.655 176.490,279.600 176.600 C 279.545 176.710,279.462 176.935,279.415 177.100 C 279.144 178.064,276.363 184.902,275.959 185.600 C 275.514 186.369,274.348 188.967,274.387 189.104 C 274.476 189.419,273.064 191.705,272.215 192.621 C 271.673 193.207,271.251 193.802,271.278 193.943 C 271.395 194.556,270.679 195.572,270.296 195.336 C 270.064 195.192,269.994 195.266,270.139 195.501 C 270.284 195.735,269.539 196.708,268.486 197.663 C 267.432 198.618,266.858 199.220,267.211 199.000 C 267.564 198.780,267.166 199.235,266.327 200.011 C 265.487 200.787,264.800 201.617,264.800 201.855 C 264.800 202.093,264.361 202.618,263.824 203.021 C 263.287 203.424,262.922 203.873,263.012 204.019 C 263.102 204.165,262.537 205.030,261.757 205.942 C 260.976 206.854,260.455 207.600,260.598 207.600 C 260.741 207.600,260.485 208.074,260.029 208.654 C 259.573 209.234,259.200 210.008,259.200 210.374 C 259.200 210.740,259.037 211.211,258.837 211.420 C 258.148 212.142,256.808 217.267,255.597 223.816 C 254.928 227.431,254.028 231.517,253.596 232.895 C 253.164 234.273,252.808 235.715,252.805 236.100 C 252.802 236.485,252.620 236.800,252.400 236.800 C 252.180 236.800,252.000 237.250,252.000 237.800 C 252.000 238.350,251.847 238.800,251.661 238.800 C 251.383 238.800,249.889 241.628,249.765 242.387 C 249.631 243.214,249.046 243.952,248.696 243.736 C 248.465 243.593,248.393 243.666,248.536 243.897 C 248.874 244.443,245.431 248.274,244.282 248.633 C 243.797 248.784,243.310 249.034,243.200 249.189 C 243.090 249.343,242.182 249.944,241.182 250.525 C 239.266 251.637,238.114 254.121,237.400 258.677 C 237.256 259.599,236.882 260.566,236.569 260.826 C 236.256 261.086,236.000 261.487,236.000 261.717 C 236.000 261.948,235.700 262.469,235.333 262.874 C 234.966 263.280,234.621 264.014,234.566 264.506 C 234.511 264.998,234.452 265.512,234.433 265.649 C 234.415 265.785,233.365 266.945,232.100 268.225 C 230.835 269.505,230.173 270.293,230.629 269.976 C 231.086 269.659,230.546 270.253,229.429 271.296 C 228.313 272.338,227.241 273.193,227.046 273.196 C 226.851 273.198,226.265 273.660,225.744 274.223 C 225.214 274.795,224.594 275.120,224.336 274.961 C 224.083 274.804,223.978 274.840,224.101 275.040 C 224.225 275.240,223.308 275.885,222.063 276.474 C 217.332 278.709,215.094 279.627,214.883 279.416 C 214.763 279.296,214.342 279.490,213.947 279.848 C 213.553 280.205,212.992 280.406,212.701 280.294 C 212.410 280.182,210.828 280.357,209.186 280.683 C 203.861 281.738,190.850 281.484,188.936 280.287 C 188.681 280.128,188.186 280.107,187.836 280.241 C 187.486 280.376,187.200 280.319,187.200 280.116 C 187.200 279.724,183.391 278.400,182.265 278.400 C 181.899 278.400,181.600 278.220,181.600 278.000 C 181.600 277.780,181.165 277.600,180.633 277.600 C 180.102 277.600,179.607 277.465,179.533 277.300 C 179.380 276.954,175.524 275.026,175.153 275.109 C 175.017 275.140,174.491 274.723,173.983 274.182 C 173.476 273.642,172.867 273.196,172.630 273.191 C 172.394 273.186,171.750 272.811,171.200 272.356 C 170.650 271.902,170.470 271.650,170.800 271.795 C 171.333 272.030,171.333 271.998,170.800 271.511 C 170.470 271.210,169.949 270.702,169.641 270.382 C 169.153 269.873,169.120 269.876,169.377 270.400 C 169.722 271.103,167.241 268.505,166.485 267.372 C 166.202 266.947,166.078 266.825,166.209 267.100 C 166.747 268.229,165.969 267.500,165.355 266.300 C 164.990 265.585,164.166 264.333,163.526 263.518 C 162.885 262.703,162.284 261.713,162.189 261.318 C 162.094 260.923,161.661 259.610,161.226 258.400 C 160.791 257.190,160.316 255.210,160.170 254.000 C 159.917 251.907,158.325 250.000,156.831 250.000 C 156.338 250.000,152.044 245.290,152.302 245.031 C 152.429 244.904,152.353 244.800,152.133 244.800 C 151.330 244.800,146.951 237.582,147.451 237.082 C 147.571 236.963,147.401 236.265,147.075 235.532 C 146.125 233.400,144.900 227.800,144.201 222.400 C 143.323 215.612,141.275 209.218,139.368 207.311 C 139.051 206.994,138.913 206.525,139.060 206.268 C 139.208 206.010,139.186 205.929,139.011 206.086 C 138.721 206.348,137.200 204.793,137.200 204.236 C 137.200 204.105,136.481 203.349,135.603 202.555 C 134.725 201.762,134.091 200.977,134.194 200.810 C 134.297 200.643,133.980 200.168,133.491 199.753 C 132.608 199.007,132.605 199.007,133.200 199.822 C 134.002 200.921,132.195 199.007,130.200 196.645 C 129.320 195.603,128.649 194.568,128.710 194.345 C 128.770 194.123,128.635 194.055,128.410 194.194 C 128.057 194.412,127.814 193.844,128.100 193.469 C 128.155 193.397,127.696 192.677,127.080 191.869 C 126.463 191.061,126.063 190.400,126.190 190.400 C 126.509 190.400,125.180 187.859,124.698 187.548 C 124.484 187.409,123.959 186.239,123.533 184.948 C 123.106 183.657,122.431 181.880,122.033 181.000 C 121.635 180.120,121.187 178.725,121.037 177.900 C 120.887 177.075,120.592 176.400,120.382 176.400 C 120.172 176.400,120.000 175.871,120.000 175.224 C 120.000 174.577,119.828 173.941,119.617 173.811 C 119.407 173.681,119.336 173.310,119.460 172.987 C 119.584 172.664,119.526 172.400,119.330 172.400 C 119.134 172.400,118.938 171.957,118.893 171.416 C 118.848 170.875,118.456 169.149,118.022 167.582 C 117.587 166.014,117.111 163.622,116.963 162.266 C 116.816 160.910,116.619 159.666,116.526 159.503 C 115.655 157.975,116.855 135.222,117.981 131.909 C 118.448 130.536,117.931 130.171,116.991 131.209 C 116.598 131.644,116.439 132.000,116.638 132.000 C 116.837 132.000,116.235 132.699,115.300 133.554 C 114.365 134.408,113.597 135.263,113.593 135.454 C 113.589 135.644,113.176 136.188,112.675 136.663 C 112.174 137.138,111.338 138.353,110.819 139.363 C 110.299 140.373,109.712 141.200,109.514 141.200 C 109.315 141.200,109.247 141.353,109.363 141.539 C 109.478 141.726,109.229 142.247,108.810 142.697 C 108.391 143.147,108.157 143.624,108.291 143.757 C 108.424 143.891,108.313 144.000,108.043 144.000 C 107.773 144.000,107.656 144.168,107.783 144.372 C 107.909 144.577,107.827 144.859,107.600 145.000 C 107.144 145.282,105.841 148.026,105.938 148.500 C 105.972 148.665,105.809 148.800,105.576 148.800 C 105.343 148.800,105.264 148.980,105.400 149.200 C 105.536 149.420,105.473 149.600,105.261 149.600 C 105.048 149.600,104.643 150.500,104.361 151.600 C 104.079 152.700,103.692 153.600,103.501 153.600 C 103.309 153.600,103.269 153.788,103.411 154.018 C 103.553 154.247,103.493 154.652,103.278 154.918 C 102.225 156.215,99.498 166.993,99.006 171.800 C 98.870 173.120,98.663 174.703,98.544 175.318 C 98.255 176.816,98.293 190.286,98.596 193.800 C 99.092 199.554,101.684 212.000,102.386 212.000 C 102.563 212.000,102.801 212.360,102.916 212.801 C 103.031 213.241,102.979 213.511,102.800 213.400 C 102.621 213.289,102.668 213.829,102.904 214.599 C 103.141 215.370,103.495 216.000,103.691 216.000 C 103.887 216.000,103.936 216.180,103.800 216.400 C 103.664 216.620,103.763 216.800,104.019 216.800 C 104.276 216.800,104.396 217.033,104.287 217.318 C 104.178 217.602,104.428 218.534,104.844 219.389 C 105.260 220.244,105.600 221.159,105.600 221.422 C 105.600 221.686,105.878 222.133,106.218 222.415 C 106.558 222.697,106.740 223.179,106.623 223.485 C 106.505 223.791,106.587 223.932,106.805 223.797 C 107.022 223.663,107.200 223.913,107.200 224.353 C 107.200 224.793,107.383 225.266,107.607 225.404 C 107.830 225.542,107.909 225.823,107.783 226.028 C 107.656 226.232,107.754 226.400,108.000 226.400 C 108.246 226.400,108.336 226.580,108.200 226.800 C 108.064 227.020,108.154 227.200,108.400 227.200 C 108.646 227.200,108.736 227.380,108.600 227.600 C 108.464 227.820,108.554 228.000,108.800 228.000 C 109.046 228.000,109.136 228.180,109.000 228.400 C 108.864 228.620,108.910 228.800,109.102 228.800 C 109.294 228.800,109.698 229.430,110.000 230.200 C 110.302 230.970,110.706 231.600,110.898 231.600 C 111.090 231.600,111.136 231.780,111.000 232.000 C 110.864 232.220,110.943 232.400,111.176 232.400 C 111.409 232.400,111.600 232.642,111.600 232.938 C 111.600 233.234,112.043 233.991,112.584 234.621 C 113.125 235.250,113.496 235.838,113.408 235.925 C 113.240 236.094,113.514 236.452,115.300 238.396 C 115.905 239.054,116.400 239.854,116.400 240.173 C 116.400 240.492,116.608 240.881,116.862 241.038 C 117.175 241.232,117.215 241.143,116.985 240.762 C 116.697 240.283,116.747 240.281,117.323 240.749 C 117.695 241.051,118.000 241.625,118.000 242.025 C 118.000 242.425,118.208 242.881,118.462 243.038 C 118.766 243.226,118.824 243.131,118.631 242.762 C 118.471 242.453,118.713 242.625,119.170 243.144 C 119.626 243.664,120.000 244.349,120.000 244.668 C 120.000 244.987,120.160 245.149,120.355 245.028 C 120.550 244.907,120.894 245.032,121.121 245.304 C 121.530 245.798,121.600 246.019,121.600 246.824 C 121.600 247.057,121.756 247.151,121.947 247.033 C 122.137 246.915,122.615 247.175,123.009 247.609 C 123.402 248.044,123.614 248.400,123.480 248.400 C 123.346 248.400,123.633 248.822,124.118 249.338 C 124.603 249.854,126.046 251.474,127.325 252.938 C 128.604 254.402,129.824 255.600,130.037 255.600 C 130.250 255.600,130.978 256.230,131.654 257.000 C 132.330 257.770,133.140 258.400,133.454 258.400 C 133.768 258.400,134.129 258.670,134.255 259.000 C 134.382 259.330,134.716 259.600,134.997 259.600 C 135.278 259.600,135.807 260.056,136.172 260.613 C 136.537 261.170,136.998 261.525,137.198 261.402 C 137.397 261.278,137.755 261.543,137.994 261.989 C 138.233 262.435,138.692 262.800,139.014 262.800 C 139.336 262.800,139.601 262.935,139.603 263.100 C 139.604 263.265,140.266 263.850,141.074 264.400 C 141.881 264.950,142.812 265.670,143.143 266.000 C 143.473 266.330,143.846 266.603,143.971 266.606 C 144.097 266.609,144.709 267.059,145.332 267.606 C 145.955 268.153,146.636 268.600,146.847 268.600 C 147.057 268.600,147.358 268.794,147.515 269.030 C 147.672 269.267,148.385 269.801,149.100 270.216 C 149.815 270.632,150.400 271.124,150.400 271.310 C 150.400 271.495,150.581 271.535,150.803 271.398 C 151.024 271.261,151.313 271.430,151.445 271.772 C 151.576 272.115,151.834 272.303,152.017 272.189 C 152.201 272.076,152.529 272.302,152.747 272.692 C 152.965 273.081,153.258 273.339,153.399 273.264 C 153.671 273.119,154.988 274.013,156.732 275.526 C 157.320 276.035,158.569 276.822,159.510 277.274 C 160.450 277.727,161.749 278.592,162.396 279.196 C 163.043 279.800,163.644 280.223,163.731 280.136 C 163.819 280.048,164.455 280.504,165.145 281.149 C 165.835 281.793,166.400 282.228,166.400 282.114 C 166.400 282.000,167.109 282.548,167.976 283.331 C 168.843 284.114,170.103 285.040,170.776 285.388 C 171.449 285.736,172.000 286.196,172.000 286.410 C 172.000 286.625,172.233 286.800,172.519 286.800 C 172.804 286.800,173.741 287.520,174.600 288.400 C 175.459 289.280,176.351 290.001,176.581 290.001 C 176.812 290.002,178.521 291.532,180.380 293.401 C 182.240 295.271,183.898 296.800,184.065 296.800 C 184.521 296.800,191.600 303.907,191.600 304.365 C 191.600 304.582,191.849 304.904,192.154 305.080 C 192.978 305.556,195.576 309.090,195.303 309.364 C 195.173 309.494,195.243 309.600,195.458 309.600 C 196.007 309.600,197.619 311.863,197.823 312.919 C 197.916 313.402,198.175 313.858,198.399 313.933 C 198.622 314.007,198.726 314.196,198.630 314.351 C 198.534 314.507,198.795 314.659,199.209 314.691 C 199.663 314.725,200.072 314.401,200.239 313.874 C 200.390 313.393,201.121 312.370,201.862 311.600 C 202.602 310.830,204.499 308.670,206.076 306.800 C 209.708 302.493,212.862 299.200,213.355 299.200 C 213.565 299.200,214.625 298.255,215.712 297.100 C 216.798 295.945,217.462 295.360,217.188 295.800 C 216.914 296.240,217.360 295.834,218.179 294.898 C 218.999 293.962,219.862 293.315,220.097 293.460 C 220.333 293.606,220.408 293.537,220.265 293.306 C 219.999 292.875,221.941 291.344,222.530 291.521 C 222.711 291.575,222.746 291.436,222.607 291.212 C 222.468 290.987,222.815 290.594,223.377 290.337 C 223.940 290.081,224.400 289.749,224.400 289.598 C 224.400 289.160,229.277 285.389,229.687 285.510 C 229.892 285.570,229.957 285.454,229.832 285.252 C 229.603 284.882,230.715 284.210,231.330 284.346 C 231.511 284.387,231.557 284.254,231.432 284.052 C 231.203 283.682,232.315 283.010,232.930 283.146 C 233.111 283.187,233.162 283.062,233.043 282.870 C 232.925 282.678,233.316 282.273,233.914 281.971 C 234.511 281.669,235.682 280.826,236.516 280.097 C 237.350 279.369,238.233 278.897,238.478 279.048 C 238.748 279.215,238.811 279.142,238.638 278.862 C 238.379 278.443,238.878 278.215,239.730 278.363 C 239.911 278.394,239.951 278.244,239.819 278.030 C 239.686 277.816,239.943 277.445,240.389 277.206 C 240.835 276.967,241.200 276.911,241.200 277.082 C 241.200 277.252,241.661 276.895,242.224 276.287 C 242.788 275.680,243.405 275.280,243.597 275.398 C 243.788 275.516,244.075 275.402,244.234 275.145 C 244.415 274.852,244.350 274.784,244.062 274.962 C 243.808 275.119,243.600 275.167,243.600 275.070 C 243.600 274.773,245.662 273.520,246.307 273.425 C 246.639 273.377,247.156 273.002,247.455 272.592 C 247.755 272.182,248.000 271.954,248.000 272.084 C 248.000 272.214,248.559 271.799,249.242 271.160 C 249.926 270.522,250.663 270.000,250.881 270.000 C 251.414 270.000,257.715 265.578,258.120 264.920 C 258.296 264.634,258.658 264.400,258.924 264.400 C 259.190 264.400,259.637 264.033,259.917 263.584 C 260.197 263.136,260.591 262.871,260.793 262.996 C 260.995 263.120,261.355 262.857,261.594 262.411 C 261.833 261.965,262.252 261.600,262.525 261.600 C 262.799 261.600,263.328 261.285,263.701 260.900 C 264.074 260.515,265.205 259.480,266.214 258.600 C 267.224 257.720,269.054 255.970,270.282 254.712 C 271.510 253.454,272.638 252.500,272.788 252.592 C 273.099 252.785,278.342 247.610,278.453 247.000 C 278.494 246.780,279.803 244.929,281.363 242.887 C 282.923 240.845,284.707 238.460,285.326 237.587 C 285.946 236.714,286.632 236.000,286.850 236.000 C 287.068 236.000,287.135 235.819,286.998 235.597 C 286.861 235.376,287.018 235.091,287.347 234.965 C 287.675 234.839,288.127 234.210,288.351 233.568 C 288.575 232.926,288.958 232.400,289.203 232.400 C 289.447 232.400,289.536 232.220,289.400 232.000 C 289.264 231.780,289.343 231.600,289.576 231.600 C 289.809 231.600,290.000 231.330,290.000 231.000 C 290.000 230.670,290.191 230.400,290.424 230.400 C 290.657 230.400,290.736 230.220,290.600 230.000 C 290.464 229.780,290.554 229.600,290.800 229.600 C 291.046 229.600,291.136 229.420,291.000 229.200 C 290.864 228.980,290.917 228.800,291.117 228.800 C 291.318 228.800,292.060 227.495,292.766 225.900 C 293.473 224.305,294.229 222.673,294.445 222.274 C 299.969 212.096,303.033 188.687,301.000 172.200 C 299.653 161.275,294.769 146.321,291.296 142.491 C 291.019 142.186,290.895 141.770,291.020 141.568 C 291.145 141.365,291.057 141.200,290.824 141.200 C 290.591 141.200,290.400 140.968,290.400 140.685 C 290.400 140.402,289.867 139.547,289.216 138.785 C 288.565 138.023,288.025 137.218,288.016 136.996 C 288.007 136.774,287.633 136.363,287.184 136.083 C 286.736 135.803,286.494 135.372,286.646 135.125 C 286.799 134.877,286.745 134.787,286.525 134.922 C 286.161 135.148,284.218 132.969,284.206 132.320 C 284.202 132.166,283.939 131.806,283.619 131.520 C 283.114 131.068,283.111 131.104,283.593 131.800 C 283.898 132.240,283.584 132.015,282.896 131.300 C 281.500 129.849,281.200 129.725,281.200 130.600 M198.089 244.233 C 197.148 244.797,195.907 245.695,195.331 246.229 C 194.755 246.763,194.023 247.200,193.705 247.200 C 193.387 247.200,192.672 247.558,192.116 247.995 C 191.561 248.432,190.919 248.674,190.691 248.533 C 190.455 248.387,190.396 248.470,190.555 248.726 C 190.726 249.003,190.403 249.275,189.716 249.433 C 189.102 249.574,187.070 250.185,185.200 250.792 C 181.071 252.130,177.757 252.764,173.000 253.126 C 169.511 253.392,169.396 253.432,169.280 254.432 C 169.155 255.503,170.650 260.000,171.131 260.000 C 171.282 260.000,171.650 260.555,171.951 261.233 C 172.251 261.911,173.420 263.406,174.548 264.555 C 175.900 265.932,176.122 266.086,175.200 265.007 C 174.355 264.018,174.672 264.246,176.000 265.583 C 181.023 270.639,195.797 275.066,202.883 273.637 C 204.048 273.402,205.360 273.213,205.800 273.216 C 206.675 273.222,209.680 272.898,210.000 272.763 C 210.110 272.716,210.380 272.643,210.600 272.600 C 210.820 272.558,211.270 272.413,211.600 272.280 C 211.930 272.146,213.232 271.747,214.493 271.392 C 215.754 271.038,216.891 270.576,217.020 270.367 C 217.150 270.158,217.423 270.091,217.628 270.217 C 217.832 270.344,218.000 270.246,218.000 270.000 C 218.000 269.754,218.161 269.652,218.358 269.774 C 218.555 269.896,218.824 269.715,218.955 269.372 C 219.087 269.030,219.376 268.861,219.597 268.998 C 219.819 269.135,220.000 269.095,220.000 268.910 C 220.000 268.724,220.525 268.262,221.167 267.883 C 222.519 267.084,225.800 263.743,225.800 263.164 C 225.800 262.948,226.070 262.600,226.400 262.392 C 226.730 262.183,226.834 262.009,226.630 262.006 C 226.427 262.003,226.641 261.595,227.106 261.100 C 227.571 260.605,227.984 260.020,228.024 259.800 C 228.063 259.580,228.259 258.971,228.458 258.447 C 230.103 254.122,229.775 252.801,227.057 252.798 C 221.336 252.791,208.800 249.730,208.800 248.339 C 208.800 248.153,208.472 248.000,208.071 248.000 C 207.670 248.000,206.635 247.465,205.771 246.811 C 204.907 246.157,204.044 245.617,203.853 245.611 C 203.662 245.605,202.891 245.060,202.139 244.400 C 200.481 242.945,200.254 242.935,198.089 244.233 M246.175 246.500 L 245.000 247.800 246.300 246.625 C 247.015 245.979,247.600 245.394,247.600 245.325 C 247.600 245.016,247.270 245.288,246.175 246.500 M278.000 247.312 C 278.000 247.373,276.785 248.588,275.300 250.012 L 272.600 252.600 275.188 249.900 C 277.593 247.392,278.000 247.017,278.000 247.312 " stroke="none" fill="#e4f9f5" fill-rule="evenodd"></path><path id="path1" d="M0.000 200.000 L 0.000 400.000 200.000 400.000 L 400.000 400.000 400.000 200.000 L 400.000 0.000 200.000 0.000 L 0.000 0.000 0.000 200.000 M212.071 66.166 C 225.574 68.143,238.763 72.866,251.663 80.344 L 255.125 82.352 257.161 81.578 C 278.447 73.490,296.189 96.029,285.344 117.381 L 283.881 120.261 287.578 124.630 C 315.521 157.659,317.100 205.127,291.499 242.496 C 282.342 255.861,273.348 264.168,251.200 279.715 C 221.654 300.456,210.479 311.374,205.100 324.751 C 201.826 332.895,198.319 332.878,195.201 324.704 C 192.564 317.792,189.287 313.202,181.471 305.470 C 173.287 297.375,166.322 291.912,144.197 276.234 C 125.512 262.994,116.053 253.808,107.088 240.200 C 83.156 203.872,85.025 157.137,111.677 125.441 C 113.505 123.267,115.161 121.273,115.357 121.009 C 115.584 120.704,115.259 119.402,114.469 117.444 C 105.324 94.796,122.581 72.962,142.637 81.802 L 144.673 82.700 148.837 80.104 C 161.739 72.060,175.083 67.485,191.600 65.442 C 194.283 65.110,208.228 65.603,212.071 66.166 " stroke="none" fill="#e4f9f5" fill-rule="evenodd"></path><path id="path2" d="M195.000 65.464 C 176.753 66.937,162.304 71.649,148.106 80.756 L 144.958 82.776 141.779 81.518 C 122.050 73.714,106.083 94.666,114.554 117.243 L 115.846 120.687 114.507 122.243 C 87.607 153.515,82.761 192.763,101.238 229.708 C 110.793 248.814,122.300 260.783,149.400 279.806 C 179.027 300.602,190.107 311.526,195.602 325.356 C 198.348 332.267,202.530 332.287,204.792 325.400 C 208.820 313.143,220.010 301.774,246.800 282.721 C 276.777 261.400,284.597 254.042,294.294 238.033 C 316.845 200.804,314.400 158.032,287.844 125.200 L 283.800 120.200 285.232 117.312 C 295.555 96.487,278.726 74.086,258.200 81.329 L 255.000 82.458 251.600 80.405 C 234.664 70.176,211.704 64.115,195.000 65.464 M214.288 74.211 C 226.595 76.290,238.131 80.627,245.493 85.943 L 247.587 87.455 244.899 89.428 C 241.248 92.108,234.400 98.954,234.400 99.926 C 234.400 101.028,235.001 101.411,238.864 102.775 C 263.312 111.404,275.728 127.424,275.774 150.400 C 275.809 168.279,270.286 183.432,258.775 197.030 C 250.959 206.263,249.661 209.176,247.411 222.538 C 244.252 241.302,238.437 247.378,225.366 245.573 C 208.260 243.211,199.906 233.983,206.227 224.431 C 208.114 221.580,210.493 220.355,219.476 217.606 C 232.081 213.750,235.707 205.454,231.807 189.400 C 226.646 168.160,227.751 161.743,236.633 161.361 C 238.781 161.269,241.273 160.985,242.170 160.729 C 243.066 160.474,243.980 160.227,244.200 160.181 C 250.250 158.900,254.522 153.260,251.631 150.369 C 250.128 148.866,249.857 148.888,246.248 150.800 C 243.078 152.479,240.608 153.431,238.600 153.747 C 237.940 153.851,236.680 154.047,235.800 154.183 C 234.920 154.319,232.820 154.165,231.134 153.841 C 228.244 153.285,227.279 152.911,223.415 150.847 C 217.755 147.822,215.889 154.272,221.245 158.347 C 223.470 160.040,223.452 159.966,222.360 163.037 C 220.677 167.768,220.983 178.438,223.014 185.800 C 226.867 199.772,226.996 200.879,225.181 204.437 C 224.340 206.086,223.280 206.461,222.413 205.415 C 220.659 203.303,213.765 202.443,207.400 203.544 C 202.357 204.416,198.850 204.380,192.600 203.393 C 186.104 202.367,182.012 202.773,177.905 204.849 C 174.363 206.640,173.388 199.899,175.757 190.000 C 178.787 177.343,179.544 170.329,178.413 165.400 C 178.212 164.520,177.962 163.350,177.859 162.800 C 177.756 162.250,177.580 161.530,177.469 161.200 C 176.831 159.308,176.804 158.400,177.385 158.400 C 178.837 158.400,181.600 155.023,181.600 153.250 C 181.600 149.624,179.502 148.875,175.348 151.018 C 172.419 152.530,169.753 153.525,167.800 153.833 C 167.140 153.937,166.216 154.106,165.746 154.207 C 162.779 154.849,156.347 153.029,152.609 150.489 C 148.416 147.640,144.858 151.380,147.710 155.641 C 149.800 158.765,159.216 162.018,164.453 161.426 C 172.149 160.555,173.000 166.094,168.569 188.200 C 164.515 208.418,166.798 212.889,184.200 218.813 C 202.913 225.183,198.228 241.908,176.800 245.231 C 161.160 247.656,154.099 240.867,152.015 221.400 C 150.748 209.565,149.263 205.918,142.815 198.800 C 125.906 180.134,119.834 155.334,126.877 133.701 C 131.396 119.819,146.356 107.335,163.685 102.984 C 167.615 101.998,168.000 101.631,167.021 99.799 C 166.100 98.074,160.544 92.699,156.497 89.615 C 153.119 87.042,153.056 87.257,158.193 83.839 C 166.958 78.007,179.142 74.104,191.000 73.330 C 192.980 73.201,194.690 73.007,194.800 72.900 C 195.308 72.404,209.067 73.330,214.288 74.211 M135.562 87.993 C 140.142 88.861,144.746 91.408,149.300 95.591 C 152.832 98.835,152.881 98.723,146.500 101.978 C 139.486 105.556,136.699 107.648,129.822 114.498 L 124.244 120.054 123.532 119.127 C 120.264 114.875,118.553 106.906,119.724 101.389 C 120.802 96.304,125.057 89.600,127.205 89.600 C 127.554 89.600,128.045 89.395,128.296 89.144 C 128.709 88.731,131.959 87.693,133.045 87.627 C 133.290 87.612,134.423 87.777,135.562 87.993 M272.000 88.931 C 281.404 93.308,282.961 104.111,276.197 118.062 L 275.488 119.523 269.763 113.630 C 263.251 106.926,258.818 103.530,252.102 100.098 C 249.628 98.834,247.603 97.674,247.602 97.519 C 247.599 97.151,253.224 92.387,254.000 92.100 C 254.330 91.978,254.870 91.656,255.200 91.384 C 259.481 87.856,267.252 86.722,272.000 88.931 M284.333 132.352 C 308.599 159.890,307.681 210.027,282.324 242.000 C 280.492 244.310,278.680 246.689,278.296 247.287 C 276.557 249.997,262.600 262.074,255.012 267.435 C 253.026 268.839,249.510 271.330,247.200 272.972 C 244.890 274.614,241.383 277.092,239.408 278.478 C 222.377 290.433,206.455 304.939,200.314 314.096 L 199.229 315.715 198.514 314.439 C 191.913 302.648,178.477 290.295,154.800 274.246 C 145.788 268.138,136.510 261.285,134.800 259.473 C 134.250 258.891,133.594 258.411,133.341 258.407 C 133.089 258.403,132.330 257.770,131.654 257.000 C 130.978 256.230,130.261 255.600,130.061 255.600 C 129.862 255.600,128.112 253.845,126.173 251.700 C 124.233 249.555,122.446 247.620,122.201 247.400 C 119.953 245.383,113.141 236.090,110.765 231.800 C 100.025 212.404,96.282 193.060,99.040 171.200 C 100.796 157.282,107.270 142.415,115.835 132.633 C 118.785 129.265,119.459 128.858,118.374 131.100 C 115.848 136.321,115.729 158.958,118.179 168.136 C 120.850 178.140,121.615 180.346,124.639 186.757 C 127.076 191.924,129.657 195.708,133.853 200.266 C 138.515 205.330,138.941 205.890,140.489 209.000 C 142.430 212.897,143.397 216.451,144.367 223.259 C 146.286 236.723,150.591 245.398,157.695 250.113 L 159.806 251.514 160.306 254.657 C 163.161 272.603,187.752 285.230,210.400 280.380 C 212.490 279.932,214.634 279.475,215.165 279.363 C 215.696 279.252,216.901 278.810,217.843 278.380 C 218.785 277.951,219.710 277.600,219.898 277.600 C 220.607 277.600,227.079 273.069,228.936 271.273 C 232.963 267.377,235.281 263.460,237.781 256.330 L 239.419 251.660 241.870 250.023 C 249.330 245.042,252.549 238.859,255.597 223.663 C 258.111 211.129,259.934 207.053,266.245 199.859 C 280.958 183.088,287.609 155.177,282.042 133.562 C 280.701 128.355,280.777 128.316,284.333 132.352 M203.379 245.030 C 209.779 249.412,217.684 252.166,225.295 252.664 C 229.910 252.967,229.910 252.966,229.017 256.469 C 227.929 260.740,225.113 265.111,222.108 267.196 C 221.398 267.688,220.408 268.454,219.908 268.897 C 218.539 270.110,213.502 272.027,209.200 272.973 C 192.337 276.680,172.754 268.474,169.553 256.362 C 168.804 253.527,168.991 253.361,173.263 253.079 C 181.729 252.521,187.482 250.571,196.400 245.235 C 200.511 242.775,200.104 242.787,203.379 245.030 " stroke="none" fill="#576d69" fill-rule="evenodd"></path><path id="path3" d="M150.300 108.229 C 148.749 109.070,148.925 109.361,150.500 108.559 C 152.008 107.793,152.275 107.594,151.767 107.616 C 151.565 107.625,150.905 107.901,150.300 108.229 M281.638 130.103 C 282.167 130.600,283.126 131.545,283.770 132.203 C 284.413 132.861,284.171 132.455,283.232 131.300 C 282.294 130.145,281.334 129.200,281.101 129.200 C 280.867 129.200,281.109 129.606,281.638 130.103 M132.000 198.925 C 132.000 198.994,132.585 199.579,133.300 200.225 L 134.600 201.400 133.425 200.100 C 132.330 198.888,132.000 198.616,132.000 198.925 M186.400 242.000 C 185.630 242.422,185.144 242.774,185.320 242.783 C 185.744 242.805,188.000 241.632,188.000 241.390 C 188.000 241.128,187.977 241.137,186.400 242.000 M245.775 247.300 L 244.600 248.600 245.900 247.425 C 247.112 246.330,247.384 246.000,247.075 246.000 C 247.006 246.000,246.421 246.585,245.775 247.300 M175.000 264.800 C 175.859 265.680,176.652 266.400,176.762 266.400 C 176.872 266.400,176.259 265.680,175.400 264.800 C 174.541 263.920,173.748 263.200,173.638 263.200 C 173.528 263.200,174.141 263.920,175.000 264.800 M167.200 268.525 C 167.200 268.594,167.785 269.179,168.500 269.825 L 169.800 271.000 168.625 269.700 C 167.530 268.488,167.200 268.216,167.200 268.525 M230.175 270.500 L 229.000 271.800 230.300 270.625 C 231.015 269.979,231.600 269.394,231.600 269.325 C 231.600 269.016,231.270 269.288,230.175 270.500 M224.600 274.800 C 223.940 275.237,223.580 275.592,223.800 275.588 C 224.201 275.582,226.376 274.023,226.000 274.012 C 225.890 274.008,225.260 274.363,224.600 274.800 M220.581 303.300 L 219.000 305.000 220.700 303.419 C 222.281 301.948,222.584 301.600,222.281 301.600 C 222.216 301.600,221.451 302.365,220.581 303.300 M215.781 308.100 L 214.200 309.800 215.900 308.219 C 217.481 306.748,217.784 306.400,217.481 306.400 C 217.416 306.400,216.651 307.165,215.781 308.100 " stroke="none" fill="#e4f9f5" fill-rule="evenodd"></path><path id="path4" d="M131.900 79.882 C 132.395 79.978,133.205 79.978,133.700 79.882 C 134.195 79.787,133.790 79.709,132.800 79.709 C 131.810 79.709,131.405 79.787,131.900 79.882 M280.800 85.725 C 280.800 85.794,281.385 86.379,282.100 87.025 L 283.400 88.200 282.225 86.900 C 281.130 85.688,280.800 85.416,280.800 85.725 M237.600 95.400 C 236.628 96.390,235.923 97.200,236.033 97.200 C 236.143 97.200,237.028 96.390,238.000 95.400 C 238.972 94.410,239.677 93.600,239.567 93.600 C 239.457 93.600,238.572 94.410,237.600 95.400 M252.000 100.000 C 253.210 100.639,254.380 101.162,254.600 101.162 C 254.820 101.162,254.010 100.639,252.800 100.000 C 251.590 99.361,250.420 98.838,250.200 98.838 C 249.980 98.838,250.790 99.361,252.000 100.000 M126.378 117.440 C 125.620 118.232,124.654 119.012,124.232 119.174 C 123.809 119.336,123.644 119.580,123.864 119.716 C 124.085 119.853,125.144 119.072,126.218 117.982 C 127.291 116.892,128.077 116.000,127.963 116.000 C 127.850 116.000,127.137 116.648,126.378 117.440 M136.786 118.300 L 134.600 120.600 136.900 118.414 C 138.165 117.211,139.200 116.176,139.200 116.114 C 139.200 115.817,138.818 116.163,136.786 118.300 M274.000 117.837 C 274.550 118.476,275.027 119.057,275.060 119.127 C 275.093 119.196,275.221 119.090,275.344 118.890 C 275.468 118.691,274.991 118.110,274.284 117.600 L 273.000 116.673 274.000 117.837 M148.000 156.546 C 148.000 156.656,148.540 157.130,149.200 157.600 C 149.860 158.070,150.400 158.364,150.400 158.254 C 150.400 158.144,149.860 157.670,149.200 157.200 C 148.540 156.730,148.000 156.436,148.000 156.546 M161.300 161.876 C 161.685 161.976,162.315 161.976,162.700 161.876 C 163.085 161.775,162.770 161.693,162.000 161.693 C 161.230 161.693,160.915 161.775,161.300 161.876 M169.209 163.451 C 169.214 163.643,169.567 164.250,169.993 164.800 C 170.730 165.750,170.757 165.756,170.541 164.913 C 170.313 164.025,169.192 162.794,169.209 163.451 M98.131 184.200 C 98.133 185.740,98.205 186.321,98.292 185.491 C 98.379 184.661,98.377 183.401,98.289 182.691 C 98.200 181.981,98.129 182.660,98.131 184.200 M273.381 190.437 C 273.029 191.118,272.812 191.745,272.899 191.832 C 272.986 191.919,273.356 191.362,273.722 190.595 C 274.544 188.870,274.259 188.738,273.381 190.437 M268.975 196.900 L 267.800 198.200 269.100 197.025 C 269.815 196.379,270.400 195.794,270.400 195.725 C 270.400 195.416,270.070 195.688,268.975 196.900 M191.775 238.500 L 190.600 239.800 191.900 238.625 C 193.112 237.530,193.384 237.200,193.075 237.200 C 193.006 237.200,192.421 237.785,191.775 238.500 M147.628 237.800 C 147.628 238.020,147.886 238.650,148.200 239.200 C 148.514 239.750,148.772 240.020,148.772 239.800 C 148.772 239.580,148.514 238.950,148.200 238.400 C 147.886 237.850,147.628 237.580,147.628 237.800 M283.944 239.500 C 282.793 240.889,282.306 241.600,282.504 241.600 C 282.614 241.600,283.186 240.970,283.773 240.200 C 284.863 238.771,284.995 238.232,283.944 239.500 M274.193 250.900 L 269.800 255.400 274.300 251.007 C 276.775 248.591,278.800 246.566,278.800 246.507 C 278.800 246.218,278.274 246.720,274.193 250.900 M121.200 257.800 C 122.395 259.010,123.463 260.000,123.573 260.000 C 123.683 260.000,122.795 259.010,121.600 257.800 C 120.405 256.590,119.337 255.600,119.227 255.600 C 119.117 255.600,120.005 256.590,121.200 257.800 M278.778 257.900 L 277.400 259.400 278.900 258.022 C 279.725 257.263,280.400 256.588,280.400 256.522 C 280.400 256.216,280.062 256.504,278.778 257.900 M236.886 259.061 C 236.639 259.865,236.596 260.360,236.790 260.161 C 237.182 259.761,237.789 257.600,237.510 257.600 C 237.414 257.600,237.132 258.258,236.886 259.061 M228.575 271.700 L 227.400 273.000 228.700 271.825 C 229.912 270.730,230.184 270.400,229.875 270.400 C 229.806 270.400,229.221 270.985,228.575 271.700 M237.000 279.835 L 235.800 280.866 237.100 280.006 C 237.815 279.533,238.400 279.068,238.400 278.973 C 238.400 278.673,238.231 278.778,237.000 279.835 M172.400 286.911 C 172.400 286.987,172.985 287.478,173.700 288.001 C 174.504 288.590,174.784 288.687,174.433 288.255 C 173.900 287.599,172.400 286.607,172.400 286.911 M210.975 301.300 L 209.800 302.600 211.100 301.425 C 211.815 300.779,212.400 300.194,212.400 300.125 C 212.400 299.816,212.070 300.088,210.975 301.300 " stroke="none" fill="#e4f9f5" fill-rule="evenodd"></path></g></svg>